<svg id="Layer_1" data-name="Layer 1" xmlns="http://www.w3.org/2000/svg" viewBox="0 0 906.36 585.6"><defs><style>.cls-1{fill:#fff;}</style></defs><path class="cls-1" d="M894.32,541c-22.4,95.45-180.2,194.78-384.78,234.72-233.85,45.66-440.26-3.56-461-109.94s152-229.63,385.82-275.29c68.94-13.46,135.49-18.67,195.6-16.61-48.84.11-101.63,5.19-156,15.81C258,431.88,98.37,545.29,117.45,643S327.05,785.78,543,743.62C722.28,708.62,862.72,624.51,894.32,541Z" transform="translate(-46.82 -207.2)"/><path class="cls-1" d="M456.49,429.12c-167,28.43-295.41,108-304.67,184.42,4.64-85.74,143.7-177.32,326.8-211,52.79-9.71,103.88-13.61,150.69-12.38l-6,30.68C573,416.61,516,419,456.49,429.12Z" transform="translate(-46.82 -207.2)"/><path class="cls-1" d="M773.2,466.5c-28.81-20.9-71.89-35.63-123.8-42.77L663.15,392c45.51,3.81,85.89,12.84,118.41,26.37Z" transform="translate(-46.82 -207.2)"/><path class="cls-1" d="M539,731.15a750.77,750.77,0,0,1-119.36,12.44c26.68-3.7,55.79-9.23,87.49-16.82C686.73,683.8,825.39,604,811.39,521.83a71.7,71.7,0,0,0-8.82-24.11.53.53,0,0,1,0-.6,52.17,52.17,0,0,0,7.72-14l15-40.21c21.42,16.29,35.23,36,39.38,58.55C881.35,592.17,735.56,695,539,731.15Z" transform="translate(-46.82 -207.2)"/><path class="cls-1" d="M350.13,597.21a38,38,0,0,1-28.37-11.9c-7.41-8-11.17-17.88-11.17-29.43s3.71-21.62,11-29.68a36.63,36.63,0,0,1,27.85-12.07c12,0,21.77,4.52,29.18,13.42l4.93-5.22c-8.5-9.94-20-15-34.11-15a43.82,43.82,0,0,0-33.08,14.14c-8.78,9.4-13.24,21-13.24,34.39s4.5,24.88,13.36,34.1,20.18,14,33.65,14A48.31,48.31,0,0,0,370,599.78,45.31,45.31,0,0,0,385.07,589l-4.71-5.38C372.77,592.62,362.61,597.21,350.13,597.21Z" transform="translate(-46.82 -207.2)"/><polygon class="cls-1" points="409.73 308.59 408.03 310.96 353.05 387.89 353.05 395.28 417.99 395.28 417.99 388.36 364.5 388.36 361.58 388.36 363.28 385.98 418.41 309.06 418.41 301.67 353.32 301.67 353.32 308.59 406.81 308.59 409.73 308.59"/><path class="cls-1" d="M560.64,587.84l.83-1.06a49,49,0,0,0,10.7-31.18,47.33,47.33,0,0,0-13.63-34.1c-8.87-9.39-20.09-14.15-33.38-14.15a43.85,43.85,0,0,0-33.09,14.14c-8.87,9.23-13.37,20.7-13.37,34.11s4.45,25.08,13.24,34.39a44.44,44.44,0,0,0,33.22,14,45.84,45.84,0,0,0,29.65-10.41l1.05-.85,1,.95L568.16,605l4.9-4.91-11.47-11.34ZM555.81,583l-1.26-1.27-10.38-10.5-4.9,4.9,10.66,10.65L551.1,588l-1.29,1c-6.67,5.44-14.78,8.2-24.1,8.2-11.59,0-21.19-4-28.52-11.92s-11-17.86-11-29.69c0-11.64,3.71-21.53,11-29.41s17-12.06,28.52-12.06,20.88,4.07,28.13,12.08,11,17.76,11,29.39a43.89,43.89,0,0,1-8,25.95Z" transform="translate(-46.82 -207.2)"/><polygon class="cls-1" points="591.48 375.94 589.99 378.42 588.5 375.94 550.97 301.67 542.2 301.67 542.2 395.28 550.61 395.28 550.61 323.46 550.61 317.56 553.78 322.74 589.99 395.28 626.2 322.74 629.37 317.56 629.37 323.46 629.37 395.28 637.78 395.28 637.78 301.67 629.01 301.67 591.48 375.94"/><path class="cls-1" d="M383,652.41v23h-5.45V625.15h31.27v5.17H383v16.92h24.25v5.17Z" transform="translate(-46.82 -207.2)"/><path class="cls-1" d="M422.06,675.43h-5.45V625.15h5.45Z" transform="translate(-46.82 -207.2)"/><path class="cls-1" d="M470.54,675.43H464l-13.13-18.5h-12v18.5h-5.45V625.15H451q8.46,0,13.34,4.38a14.43,14.43,0,0,1,5,11.55,15.16,15.16,0,0,1-3.19,9.79,16,16,0,0,1-9,5.41Zm-18.79-45.11H438.91v21.51h12.84c3.78,0,6.74-.92,8.9-2.76s3.22-4.5,3.22-8a10,10,0,0,0-3.22-7.93C458.49,631.26,455.53,630.32,451.75,630.32Z" transform="translate(-46.82 -207.2)"/><path class="cls-1" d="M953.18,334.09c0,11.16-17.47,21-37.6,24.56C892.15,362.84,845.37,369,845.37,369s-3.3,9-8.14,22.17l4.14.13a7,7,0,0,1,6-3.24c8.74,0,11.84-1.17,11.84,7.66,0,8.09-7.39,6.84-11.94,6.84-1.88,0-5-.93-6.23-3.14l-6.79-.22c-3.17,8.59-6.75,18.3-10.39,28.12l5-.05a7,7,0,0,1,6.06-3.29c8.73,0,11.84-1.17,11.84,7.66,0,8.09-7.4,6.84-12,6.84-1.87,0-5-.92-6.2-3.09l-7.76.08C814.32,453,807.94,470,803.78,480.66c-2.8,7.16-11.68,20.15-29.42,20.15l5.3-30.74-4.89-1.3,5.29-1,4-23.41-4.86-1.3,5.26-1,3.87-22.43-4.68-1.26,5.06-1,4.45-25.78-5.32-1.43,5.76-1.1,2.69-15.61-135.64,6.66L641,425.47l-11.33-.66,8.59-44-12.43-4.88a1.49,1.49,0,0,1-.7-2.44l10.67-7.92-19.13-38.42H629l28.34,33.67,132.22-27-8.93-20.24-5.9.32,4.86-2.68L769,287.29l-5.13.28,4.23-2.33-9.21-20.86-5.26.28,4.33-2.39-9.62-21.78-5.22.29,4.3-2.38-13.77-31.2a47,47,0,0,1,38.71,20.28l23.87,34.46,7.16-1.69h0c.68-2.4,3.47-4,5.29-4.48,4.41-1.09,11.29-4.09,13.24,3.77,2.11,8.57-1.18,8.18-9.66,10.28a6.94,6.94,0,0,1-6.66-1.74l-4.4,1,17.11,24.7,5.81-1.63c.64-2.44,3.47-4.1,5.29-4.55,4.42-1.09,11.3-4.08,13.24,3.78,2.12,8.57-1.18,8.18-9.65,10.27a7,7,0,0,1-6.62-1.7l-3.18.9,17.32,25s33.78-4.18,59.06-7.61c16-2.17,26.51-3,43.36,3.84C947.72,324.05,953.18,327.51,953.18,334.09Z" transform="translate(-46.82 -207.2)"/></svg>